PathFileType	4	(X/Y/Z)	D:\Share\Shared_Data\Ergonomics\Sit To Stand Pertubation\S3\Unperturbed.trc
DataRate	CameraRate	NumFrames	NumMarkers	Units	OrigDataRate	OrigDataStartFrame	OrigNumFrames	
100	100	8	18	m	100	4844	191
Frame#	Time	R_Thigh			R_ASIS			R_Pelvis			V_Sacral			L_Pelvis			L_ASIS			Clavical			R_Acromium			L_Acromium			Sternum			Torso			R_Thigh_Med			R_Thigh_Lat			R_Shank_Med			R_Shank_Lat			R_Shank			R_Heel			R_Toe			
		X1	Y1	Z1	X2	Y2	Z2	X3	Y3	Z3	X4	Y4	Z4	X5	Y5	Z5	X6	Y6	Z6	X7	Y7	Z7	X8	Y8	Z8	X9	Y9	Z9	X10	Y10	Z10	X11	Y11	Z11	X12	Y12	Z12	X13	Y13	Z13	X14	Y14	Z14	X15	Y15	Z15	X16	Y16	Z16	X17	Y17	Z17	X18	Y18	Z18	

4844	48.43	0.35683832	0.66888354	0.1219037	0.29030145	0.89999036	0.13648322	0.18703888	0.9221781	0.19062572	0.089156433	0.96938916	-0.00045269856	0.19774731	0.93793799	-0.20102577	0.29450815	0.89639032	-0.14278075	0.37509946	1.3167019	-0.0092150126	0.33121796	1.385276	0.15433577	0.34978281	1.3796768	-0.16492212	0.38597159	1.2359996	-0.0045719957	0.38116098	1.3003818	-0.07338549	0.39673639	0.47770898	0.07763839	0.34464285	0.44698245	0.17200298	0.26153018	0.10649079	0.092087242	0.2346586	0.098860725	0.17130205	0.26679971	0.27855362	0.18606465	0.18050543	0.051569813	0.12101942	0.39894077	0.05495892	0.13946307
4845	48.44	0.35971625	0.66964178	0.12024162	0.29534012	0.9056084	0.13643544	0.19191188	0.92654352	0.19041728	0.093606697	0.97257782	-0.0007580049	0.20294528	0.94198969	-0.20120419	0.29996674	0.9017392	-0.14297621	0.37359174	1.3242004	-0.0090696592	0.32841785	1.3920547	0.15451306	0.34699722	1.3867991	-0.16484561	0.38561655	1.2440037	-0.0045151334	0.37992419	1.3082339	-0.073405624	0.39593497	0.4787403	0.075297867	0.34252325	0.44800876	0.1691982	0.26130878	0.10642359	0.091872665	0.23460992	0.098839561	0.17114926	0.26554788	0.27927744	0.18458139	0.1804463	0.051481834	0.12091133	0.39901163	0.054943378	0.13933408
4846	48.45	0.36247937	0.67029639	0.11835245	0.30035376	0.91088293	0.13644934	0.1967117	0.93060547	0.19026898	0.09802993	0.97544147	-0.0010577948	0.20815445	0.945703	-0.20135654	0.30538666	0.90670648	-0.14311844	0.37204285	1.3312018	-0.0089110022	0.32562067	1.3983108	0.15468687	0.34425641	1.3934424	-0.16471741	0.38518109	1.2514928	-0.004446702	0.37861752	1.3155773	-0.073404434	0.39494809	0.47967374	0.072773979	0.34031461	0.44900464	0.16633498	0.26103506	0.10633186	0.091683426	0.23458211	0.098813835	0.17097366	0.26426181	0.27996628	0.18306689	0.18038705	0.051341404	0.12077038	0.39907526	0.054931644	0.13918774
4847	48.46	0.36509427	0.67083972	0.11627282	0.30534915	0.91582391	0.13653357	0.20143422	0.93435632	0.19017293	0.10242412	0.977979	-0.0013536829	0.21336398	0.94907794	-0.20148314	0.31080417	0.91130841	-0.14319817	0.37046262	1.3376948	-0.0087381601	0.32286844	1.4040403	0.15487531	0.34156897	1.3995968	-0.16453839	0.38468121	1.2584512	-0.004362874	0.37725333	1.3224006	-0.073382706	0.39375681	0.48049335	0.070116188	0.33801413	0.44996036	0.16346822	0.26070566	0.10621946	0.091511353	0.23456958	0.098792763	0.17078506	0.26292709	0.28061743	0.18154657	0.18033438	0.051166233	0.12061241	0.39912991	0.054925438	0.13903131
4848	48.47	0.36753439	0.67126117	0.11405305	0.31031061	0.92043304	0.13669341	0.20607925	0.9377887	0.1901158	0.10678521	0.98018933	-0.0016470497	0.21855923	0.95211786	-0.20159102	0.31625851	0.91556409	-0.14320856	0.36886624	1.3436697	-0.0085499268	0.32019449	1.4092411	0.15509151	0.33893402	1.4052571	-0.1643125	0.38413458	1.2648673	-0.0042620454	0.37584775	1.3286959	-0.073340508	0.39235269	0.48118201	0.067386719	0.33561856	0.45086856	0.16065683	0.26032535	0.10609065	0.091351875	0.23456947	0.098781929	0.17059277	0.26152448	0.28123001	0.18005103	0.18028935	0.050982971	0.12045989	0.39917477	0.054925304	0.1388739
4849	48.48	0.36978809	0.67155066	0.11175694	0.31522299	0.92470441	0.13693135	0.21065068	0.94089502	0.19007983	0.11110728	0.9820719	-0.0019378018	0.22372153	0.95483002	-0.20169102	0.32176974	0.91948859	-0.14314792	0.36727252	1.3491185	-0.0083462992	0.31761505	1.4139099	0.15534097	0.33634225	1.410421	-0.16404672	0.38355933	1.2707336	-0.0041448407	0.37442038	1.3344569	-0.073276886	0.39074277	0.48172321	0.064661003	0.33312149	0.45172498	0.15796248	0.25990735	0.10595033	0.091203941	0.2345818	0.098781464	0.17040692	0.26003299	0.28180276	0.17861322	0.18025032	0.050814552	0.12033084	0.39920996	0.054929661	0.13872592
4850	48.49	0.37185492	0.67170245	0.109462	0.32009097	0.92862805	0.1372471	0.21515443	0.94366937	0.19004272	0.11538322	0.98362885	-0.0022238641	0.2288287	0.95722546	-0.20179482	0.32731827	0.92308789	-0.14302205	0.36570166	1.3540359	-0.0081295643	0.31513419	1.4180446	0.15562471	0.33378363	1.4150875	-0.16374971	0.38297369	1.2760472	-0.0040139523	0.37299271	1.3396818	-0.073190117	0.38894623	0.48210248	0.062026783	0.33051111	0.45252774	0.15544862	0.25947302	0.10580427	0.091070381	0.2346076	0.098788376	0.1702379	0.25843222	0.28233453	0.17726547	0.18021591	0.050673031	0.12023293	0.39923633	0.054935127	0.13859781
4851	48.5	0.37373816	0.67171637	0.10726031	0.32493527	0.93219427	0.1376355	0.21959393	0.94611017	0.18997713	0.11960551	0.98486597	-0.0025014393	0.23385652	0.95931769	-0.20190971	0.3328515	0.92635956	-0.14284512	0.36416989	1.3584221	-0.0079046254	0.31275082	1.4216461	0.15594287	0.33125351	1.4192557	-0.16343021	0.38239566	1.2808094	-0.0038733006	0.3715867	1.3443717	-0.073078819	0.38699078	0.48230841	0.0595811	0.3277695	0.4532771	0.15317625	0.25905066	0.10565913	0.090957352	0.23464537	0.098800278	0.17009377	0.25670294	0.28282498	0.17603777	0.18018604	0.050561455	0.12016586	0.39925473	0.054937901	0.13849911
